#!OML:ASF H:\ManfredETheater\Project 1\Capture day 1\Session 1\subject.ASF
:FULLY-SPECIFIED
:DEGREES
410
root 1.40398 16.2908 -40.2249 -153.472 -2.11844 -186.492
lowerback 17.5214 -3.79341 -1.75724
upperback 0.0447761 -5.32951 2.2159
thorax -9.39597 -2.47122 4.749
lowerneck -21.189 -0.490591 -2.93708
upperneck 2.27087 0.680322 -0.914231
head 3.9928 0.450394 0.255064
rclavicle 1.41137e-014 -3.10104e-014
rhumerus -79.281 -4.36507 -76.6415
rradius 83.3563
rwrist -17.5559
rhand -26.9467 9.11223
rfingers 7.12502
rthumb -0.368656 -20.8672
lclavicle 1.41137e-014 -3.10104e-014
lhumerus -31.5226 -15.6454 87.7515
lradius 133.264
lwrist 15.3048
lhand -17.6311 -5.61433
lfingers 7.12502
lthumb 8.62638 24.1894
rfemur -67.5746 -10.315 24.2447
rtibia 78.5169
rfoot -15.7873 -7.19712
rtoes -44.0613
lfemur -1.89533 -12.0085 -25.5
ltibia 34.0991
lfoot 14.0685 -14.3952
ltoes -6.17052
411
root 1.4143 16.306 -40.5549 -153.201 -1.77436 -186.498
lowerback 17.6517 -3.59948 -1.64334
upperback 0.0645304 -5.05303 2.22836
thorax -9.47952 -2.34275 4.64317
lowerneck -21.1946 -0.605676 -3.08163
upperneck 1.77153 0.625155 -1.13853
head 3.83839 0.436653 0.202868
rclavicle 2.8625e-014 -8.74653e-015
rhumerus -77.318 -5.30998 -76.3682
rradius 82.8449
rwrist -17.8343
rhand -27.1988 8.72437
rfingers 7.12502
rthumb -0.612125 -21.2545
lclavicle 2.8625e-014 -8.74653e-015
lhumerus -33.4628 -16.1329 88.6729
lradius 130.717
lwrist 15.1036
lhand -17.3482 -5.13859
lfingers 7.12502
lthumb 8.89933 24.6537
rfemur -65.6475 -10.1339 24.1967
rtibia 77.5741
rfoot -17.3817 -8.72358
rtoes -45.1872
lfemur -3.5287 -12.0282 -25.4996
ltibia 36.7517
lfoot 17.0553 -14.3723
ltoes -0.509698
412
root 1.42469 16.3189 -40.8826 -152.952 -1.4704 -186.43
lowerback 17.8117 -3.39773 -1.47275
upperback 0.108544 -4.75498 2.26801
thorax -9.55574 -2.208 4.52955
lowerneck -21.1628 -0.727025 -3.21221
upperneck 1.18467 0.562818 -1.38234
head 3.6517 0.425174 0.142066
rclavicle -1.51076e-014 -5.56597e-015
rhumerus -75.0457 -6.25338 -76.2063
rradius 82.1953
rwrist -17.867
rhand -27.3491 8.31895
rfingers 7.12502
rthumb -0.757288 -21.6595
lclavicle -1.51076e-014 -5.56597e-015
lhumerus -35.363 -16.3866 89.6645
lradius 127.652
lwrist 15.0139
lhand -17.2258 -4.74782
lfingers 7.12502
lthumb 9.01749 25.0394
rfemur -63.8047 -9.94273 24.201
rtibia 76.6733
rfoot -18.6839 -10.2682
rtoes -46.2528
lfemur -5.39536 -11.863 -25.3779
ltibia 39.905
lfoot 19.1447 -14.0134
ltoes 4.67402
413
root 1.4348 16.33 -41.2089 -152.778 -1.19857 -186.239
lowerback 18.04 -3.18439 -1.21216
upperback 0.192432 -4.42512 2.34093
thorax -9.6312 -2.0644 4.39536
lowerneck -21.0662 -0.851506 -3.33278
upperneck 0.497855 0.494519 -1.62929
head 3.42501 0.418317 0.0786593
rclavicle 7.59357e-014 -5.4467e-014
rhumerus -72.4923 -7.15331 -76.1918
rradius 81.4359
rwrist -17.6519
rhand -27.4034 7.8606
rfingers 7.12502
rthumb -0.809663 -22.1176
lclavicle 7.59357e-014 -5.4467e-014
lhumerus -37.1456 -16.3904 90.6642
lradius 124.106
lwrist 15.0298
lhand -17.2312 -4.51384
lfingers 7.12502
lthumb 9.01223 25.2737
rfemur -61.9953 -9.7129 24.2851
rtibia 75.8528
rfoot -19.6879 -11.5635
rtoes -47.0589
lfemur -7.40781 -11.4909 -25.1109
ltibia 43.5011
lfoot 20.2565 -13.2837
ltoes 8.69866
414
root 1.44409 16.3391 -41.5345 -152.669 -0.941485 -185.913
lowerback 18.3188 -2.95769 -0.855709
upperback 0.311056 -4.05928 2.44599
thorax -9.70092 -1.91054 4.23283
lowerneck -20.606 -0.946447 -3.33744
upperneck -0.790538 0.417264 -1.96323
head 3.38386 0.420213 -0.00252117
rclavicle 3.57812e-015 -2.66371e-014
rhumerus -69.6833 -7.96038 -76.3548
rradius 80.5877
rwrist -17.2757
rhand -27.4021 7.38698
rfingers 7.12502
rthumb -0.808415 -22.5912
lclavicle 3.57812e-015 -2.66371e-014
lhumerus -38.7388 -16.1469 91.6141
lradius 120.121
lwrist 15.1371
lhand -17.3839 -4.44482
lfingers 7.12502
lthumb 8.86485 25.349
rfemur -60.2291 -9.42435 24.4495
rtibia 75.1344
rfoot -20.4849 -12.4883
rtoes -47.5955
lfemur -9.55818 -10.9287 -24.702
ltibia 47.4723
lfoot 20.4289 -12.1803
ltoes 11.2454
415
root 1.4525 16.3466 -41.8604 -152.642 -0.692694 -185.427
lowerback 18.6582 -2.72043 -0.390471
upperback 0.459874 -3.65804 2.5857
thorax -9.77421 -1.74734 4.03754
lowerneck -20.358 -1.05718 -3.41466
upperneck -1.5844 0.347289 -2.20339
head 3.05262 0.426589 -0.0755954
rclavicle 3.85642e-014 1.98785e-015
rhumerus -66.6454 -8.60866 -76.7214
rradius 79.6759
rwrist -16.8942
rhand -27.3922 6.88831
rfingers 7.12502
rthumb -0.798862 -23.0899
lclavicle 3.85642e-014 1.98785e-015
lhumerus -40.1005 -15.6625 92.4615
lradius 115.721
lwrist 15.3194
lhand -17.6435 -4.53033
lfingers 7.12502
lthumb 8.61439 25.2739
rfemur -58.4512 -9.06205 24.7084
rtibia 74.5009
rfoot -21.1397 -13.1221
rtoes -48.0711
lfemur -11.8093 -10.1733 -24.1347
ltibia 51.7458
lfoot 19.7641 -10.7801
ltoes 12.2708
416
root 1.46013 16.3517 -42.1871 -152.687 -0.439512 -184.797
lowerback 19.0414 -2.47333 0.163415
upperback 0.635385 -3.22656 2.7523
thorax -9.84209 -1.57691 3.81157
lowerneck -20.0574 -1.15411 -3.46684
upperneck -2.39259 0.282486 -2.4347
head 2.71006 0.439042 -0.148818
rclavicle 0 1.35174e-014
rhumerus -63.408 -9.02576 -77.3115
rradius 78.7552
rwrist -16.7014
rhand -27.4541 6.3951
rfingers 7.12502
rthumb -0.858647 -23.5829
lclavicle 0 1.35174e-014
lhumerus -41.1809 -14.9639 93.1596
lradius 110.935
lwrist 15.5839
lhand -18.0276 -4.68724
lfingers 7.12502
lthumb 8.2437 25.1319
rfemur -56.6353 -8.62544 25.0393
rtibia 73.9208
rfoot -21.7295 -13.4511
rtoes -48.5479
lfemur -14.1573 -9.24885 -23.4308
ltibia 56.2498
lfoot 18.4024 -9.24391
ltoes 11.9611
417
root 1.46754 16.3536 -42.5141 -152.781 -0.193592 -184.046
lowerback 19.4506 -2.22556 0.79612
upperback 0.814604 -2.77664 2.93909
thorax -9.91706 -1.40348 3.55546
lowerneck -19.6937 -1.23597 -3.49519
upperneck -3.17968 0.220068 -2.65341
head 2.36727 0.453016 -0.221047
rclavicle -3.02153e-014 3.57812e-014
rhumerus -60.012 -9.14109 -78.1122
rradius 77.875
rwrist -16.834
rhand -27.6403 5.93642
rfingers 7.12502
rthumb -1.03846 -24.0408
lclavicle -3.02153e-014 3.57812e-014
lhumerus -41.9842 -14.0816 93.6862
lradius 105.779
lwrist 15.9627
lhand -18.5493 -4.93736
lfingers 7.12502
lthumb 7.74017 24.901
rfemur -54.7772 -8.14157 25.4458
rtibia 73.3485
rfoot -22.2715 -13.5369
rtoes -49.0155
lfemur -16.6261 -8.18857 -22.597
ltibia 60.9163
lfoot 16.5625 -7.74917
ltoes 10.583
418
root 1.47585 16.3516 -42.8422 -152.911 0.0462844 -183.22
lowerback 19.862 -1.9805 1.46162
upperback 0.987048 -2.3214 3.14006
thorax -9.99341 -1.2309 3.29103
lowerneck -19.3027 -1.29779 -3.50525
upperneck -3.89052 0.167899 -2.86659
head 2.05 0.468196 -0.293062
rclavicle 1.19271e-015 3.89618e-014
rhumerus -56.5033 -8.89371 -79.0814
rradius 77.112
rwrist -17.3054
rhand -27.9307 5.48547
rfingers 7.12502
rthumb -1.31902 -24.4902
lclavicle 1.19271e-015 3.89618e-014
lhumerus -42.5321 -13.0529 94.0293
lradius 100.314
lwrist 16.4787
lhand -19.2631 -5.16231
lfingers 7.12502
lthumb 7.05121 24.7002
rfemur -52.8578 -7.63575 25.9031
rtibia 72.7421
rfoot -22.7844 -13.4738
rtoes -49.4845
lfemur -19.2199 -7.02262 -21.6698
ltibia 65.6761
lfoot 14.4762 -6.42427
ltoes 8.64195
419
root 1.48568 16.3442 -43.1709 -153.06 0.287677 -182.38
lowerback 20.2593 -1.73922 2.10847
upperback 1.14122 -1.87245 3.33823
thorax -10.073 -1.06156 3.03185
lowerneck -18.926 -1.34235 -3.50276
upperneck -4.4748 0.12491 -3.07867
head 1.78225 0.48035 -0.365497
rclavicle 2.38542e-014 4.13472e-014
rhumerus -52.9392 -8.25627 -80.1615
rradius 76.5436
rwrist -18.0108
rhand -28.3135 5.11827
rfingers 7.12502
rthumb -1.6887 -24.8548
lclavicle 2.38542e-014 4.13472e-014
lhumerus -42.8763 -11.924 94.1886
lradius 94.6426
lwrist 17.142
lhand -20.201 -5.39071
lfingers 7.12502
lthumb 6.1458 24.5001
rfemur -50.8863 -7.14463 26.3708
rtibia 72.0786
rfoot -23.3048 -13.329
rtoes -49.9235
lfemur -21.9551 -5.78499 -20.7131
ltibia 70.4642
lfoot 12.3847 -5.36207
ltoes 6.71694
420
root 1.49722 16.3307 -43.5003 -153.206 0.523914 -181.557
lowerback 20.6234 -2.0468 2.51942
upperback 1.30184 -1.30343 3.51653
thorax -10.1327 -0.459223 2.78102
lowerneck -18.6043 -1.36217 -3.48898
upperneck -4.88602 0.103368 -3.29936
head 1.58576 0.491874 -0.44058
rclavicle 2.06736e-014 -3.65764e-014
rhumerus -49.3928 -7.23383 -81.2794
rradius 76.2598
rwrist -18.7126
rhand -28.7148 4.87051
rfingers 7.12502
rthumb -2.07623 -25.0991
lclavicle 2.06736e-014 -3.65764e-014
lhumerus -43.1219 -10.7386 94.1747
lradius 88.9339
lwrist 17.8696
lhand -21.3608 -5.63155
lfingers 7.12502
lthumb 5.02596 24.2888
rfemur -48.8719 -6.70204 26.8459
rtibia 71.342
rfoot -23.8647 -13.1799
rtoes -50.3298
lfemur -24.843 -4.49821 -19.7551
ltibia 75.2169
lfoot 10.3919 -4.57525
ltoes 5.19722
